<?xml version="1.0" encoding="utf-8"?>
<!-- Generator: Adobe Illustrator 22.0.0, SVG Export Plug-In . SVG Version: 6.00 Build 0)  -->
<svg version="1.1" id="Layer_1" xmlns="http://www.w3.org/2000/svg" xmlns:xlink="http://www.w3.org/1999/xlink" x="0px" y="0px"
	 viewBox="0 0 841.9 595.3" style="enable-background:new 0 0 841.9 595.3;" xml:space="preserve">
<style type="text/css">
	.st0{fill:#FFFFFF;}
</style>
<g>
	<path class="st0" d="M349,157.6c1.1-2,3.4-3.1,2.2-6.3c-6.1,0-12.3,0-18.7,0c-0.5-2.4-1-4.3,0.3-6.5c1.3,0,2.8,0,4.3,0
		c17,0,34-0.2,50.9,0.1c5.3,0.1,8.1-1.5,8.4-6.9c-23.7,0-47.4,0-71.2,0c0,11.4,0,22.5,0,33.6c9.7,0,19.1,0,28.7,0
		c0.5-2.3,1-4.4,1.6-7.1c-8,0-15.7,0-23.5,0c0-2.6-0.6-4.8,0.6-6.9C337.9,157.6,343.3,157.6,349,157.6z M291.9,150.3
		c0.4-0.2,0.8-0.4,1.3-0.6c6.8,6.9,13.7,13.8,20.5,20.8c1.5,1.6,3.1,1.9,5,1.3c1.9-0.6,2.1-2.3,2.1-4.1c0-10.2,0-20.3,0-30.6
		c-2.3-1.2-4.2-3.1-7.4-3.5c0,8.7,0,17,0,26.9c-7.6-7.8-14.2-14.6-20.7-21.4c-1.5-1.5-3.1-2.4-5.3-1.5c-1.9,0.8-2,2.4-2,4.1
		c0,13.1,0,26.3,0,39.2c2.2,1.8,4.1,3.3,6.6,5.3C291.9,173.8,291.9,162,291.9,150.3z M395.9,171.8c10.5,0,20.4,0.2,30.4-0.1
		c5.6-0.2,9.2-4.9,9-10.5c-0.2-6.1-3.5-9.5-9.7-9.7c-5-0.2-10-0.1-15-0.1c-2.3,0-4.7-0.4-4.8-3.2c-0.1-3.2,2.4-3.4,4.9-3.4
		c7.6,0.1,15.2,0,22.9,0c0.9-2.6,2.6-4.4,2.6-7.2c-9.6,0-18.9-0.2-28.2,0.1c-6.9,0.2-12.7,7-10.4,11.9c2.5,5.1,6.3,8.3,12.4,8.1
		c4.8-0.2,9.6,0,14.5,0c2.1,0,3.5,0.9,3.6,3.2c0.1,2.3-1.4,3.3-3.3,3.7c-1.3,0.2-2.7,0.1-4,0.1c-7.5,0-14.9,0-22.2,0
		C397.9,167,397.1,169,395.9,171.8z M208.7,137.9c0,12.5,0.4,24.6-0.2,36.7c-0.3,5.8,2,8.8,7.4,11.3c0-9.4,0-18.5,0-27.8
		c5.9,0,11.1,0,16.4,0c1.3-2.1,3-3.7,3.4-6.5c-6.8,0-13.2,0-19.7,0c0-2.4,0-4.3,0-6.8c7.4,0,14.6,0,21.9,0c0.4-2.6,0.6-4.6-0.1-6.9
		C228.3,137.9,218.9,137.9,208.7,137.9z M282.8,138c-14.1,0-27.8,0-41.3,0c0,2.5,0,4.5,0,7c7.4,0,14.5,0,21.9,0c0,9.3,0,18.2,0,27.1
		c2.3,1.8,4.3,3.4,7.2,5.6c0-11.6,0-22.1,0-33c4.4,0,8.3,0,12.2,0C282.8,142.2,282.8,140.2,282.8,138z M356.9,171.9
		c8.9,0,17.7,0,26.4,0c1,0,2,0,3-0.1c5.3-0.6,8.7-4,9.2-9.4c0.5-4.8-2.3-10.2-6.5-10.4c-9.8-0.5-19.6-0.2-30.1-0.2
		c2.3,3.9,4.6,6,8.8,5.8c4.6-0.2,9.3,0.1,14,0c4.1-0.1,6.5,1.3,5.9,5.7c-1.6,1.8-3.5,1.3-5.3,1.4c-5.6,0-11.3,0.3-16.9-0.1
		C360.3,164.2,356.7,165.1,356.9,171.9z M241.3,148.7c0,8.1,0,15.8,0,23.6c2.2,1.6,4.2,3.1,6.7,5c0-9.9,0-19.1,0-28.6
		C246,148.3,243.9,148.3,241.3,148.7z"/>
	<path class="st0" d="M349,157.6c-5.7,0-11.1,0-16.4,0c-1.2,2.1-0.6,4.3-0.6,6.9c7.8,0,15.5,0,23.5,0c-0.6,2.6-1.1,4.7-1.6,7.1
		c-9.6,0-19,0-28.7,0c0-11.1,0-22.2,0-33.6c23.8,0,47.5,0,71.2,0c-0.4,5.4-3.1,7-8.4,6.9c-17-0.3-33.9-0.1-50.9-0.1
		c-1.5,0-2.9,0-4.3,0c-1.2,2.2-0.8,4.1-0.3,6.5c6.4,0,12.7,0,18.7,0C352.4,154.5,350.1,155.7,349,157.6z"/>
	<path class="st0" d="M291.9,150.3c0,11.8,0,23.5,0,36c-2.5-2-4.4-3.5-6.6-5.3c0-12.9,0-26.1,0-39.2c0-1.7,0.2-3.3,2-4.1
		c2.2-0.9,3.8,0,5.3,1.5c6.6,6.8,13.2,13.6,20.7,21.4c0-9.9,0-18.3,0-26.9c3.2,0.5,5,2.4,7.4,3.5c0,10.3,0,20.4,0,30.6
		c0,1.7-0.1,3.5-2.1,4.1c-1.8,0.6-3.5,0.3-5-1.3c-6.8-7-13.6-13.9-20.5-20.8C292.7,149.9,292.3,150.1,291.9,150.3z"/>
	<path class="st0" d="M395.9,171.8c1.2-2.8,2-4.8,2.9-7.1c7.3,0,14.8,0,22.2,0c1.3,0,2.7,0.2,4-0.1c1.9-0.4,3.4-1.4,3.3-3.7
		c-0.1-2.3-1.6-3.2-3.6-3.2c-4.8-0.1-9.7-0.2-14.5,0c-6.1,0.2-9.9-3-12.4-8.1c-2.4-4.8,3.4-11.7,10.4-11.9
		c9.3-0.2,18.6-0.1,28.2-0.1c0,2.8-1.7,4.6-2.6,7.2c-7.7,0-15.3,0-22.9,0c-2.5,0-5,0.2-4.9,3.4c0.1,2.8,2.5,3.2,4.8,3.2
		c5,0,10-0.1,15,0.1c6.2,0.2,9.5,3.6,9.7,9.7c0.2,5.7-3.4,10.3-9,10.5C416.4,172,406.4,171.8,395.9,171.8z"/>
	<path class="st0" d="M208.7,137.9c10.2,0,19.6,0,29.1,0c0.7,2.3,0.5,4.4,0.1,6.9c-7.3,0-14.5,0-21.9,0c0,2.5,0,4.4,0,6.8
		c6.5,0,13,0,19.7,0c-0.4,2.8-2.2,4.4-3.4,6.5c-5.2,0-10.5,0-16.4,0c0,9.4,0,18.4,0,27.8c-5.3-2.5-7.7-5.5-7.4-11.3
		C209.1,162.5,208.7,150.4,208.7,137.9z"/>
	<path class="st0" d="M282.8,138c0,2.2,0,4.2,0,6.6c-3.9,0-7.8,0-12.2,0c0,11,0,21.5,0,33c-2.9-2.2-4.9-3.8-7.2-5.6
		c0-8.8,0-17.7,0-27.1c-7.4,0-14.5,0-21.9,0c0-2.4,0-4.5,0-7C255,138,268.6,138,282.8,138z"/>
	<path class="st0" d="M356.9,171.9c-0.2-6.7,3.4-7.6,8.5-7.3c5.6,0.4,11.3,0.1,16.9,0.1c1.8,0,3.7,0.4,5.3-1.4
		c0.5-4.4-1.8-5.8-5.9-5.7c-4.6,0.1-9.3-0.2-14,0c-4.2,0.2-6.5-1.9-8.8-5.8c10.4,0,20.3-0.3,30.1,0.2c4.2,0.2,6.9,5.6,6.5,10.4
		c-0.5,5.4-3.9,8.9-9.2,9.4c-1,0.1-2,0.1-3,0.1C374.6,171.9,365.8,171.9,356.9,171.9z"/>
	<path class="st0" d="M241.3,148.7c2.5-0.3,4.7-0.4,6.7,0.1c0,9.5,0,18.7,0,28.6c-2.5-1.9-4.6-3.4-6.7-5
		C241.3,164.5,241.3,156.7,241.3,148.7z"/>
</g>
</svg>
